<svg width="28" height="28" viewBox="0 0 28 28" fill="none" xmlns="http://www.w3.org/2000/svg">
<path d="M8.30339 12.9307C7.88495 12.4834 7.23296 12.5087 6.94858 13.0779L0.0866768 26.8116C-0.0405349 27.066 -0.0269855 27.3683 0.122485 27.6103C0.271955 27.8524 0.536025 27.9997 0.820361 27.9997H10.3765C10.6893 28.0069 10.977 27.829 11.1104 27.5458C13.1709 23.2824 11.9225 16.8002 8.30339 12.9307Z" fill="url(#paint0_linear_30_190)"/>
<path d="M13.3389 0.439799C9.50092 6.5248 9.75413 13.2641 12.2821 18.3237L16.89 27.5459C17.0289 27.824 17.313 27.9996 17.6237 27.9996H27.1797C27.464 27.9997 27.7281 27.8523 27.8776 27.6103C28.027 27.3682 28.0406 27.066 27.9134 26.8115C27.9134 26.8115 15.0576 1.07842 14.7342 0.434575C14.4451 -0.14181 13.7106 -0.149647 13.3389 0.439799Z" fill="#2681FF"/>
<defs>
<linearGradient id="paint0_linear_30_190" x1="3088.68" y1="634.723" x2="624.005" y2="3280.38" gradientUnits="userSpaceOnUse">
<stop stop-color="#0052CC"/>
<stop offset="0.923" stop-color="#2684FF"/>
</linearGradient>
</defs>
</svg>
