<?xml version="1.0" encoding="UTF-8"?>
<svg xmlns="http://www.w3.org/2000/svg" id="Layer_1" data-name="Layer 1" viewBox="0 0 24 24">
  <path d="m21,14c0-1.103-.897-2-2-2h-2c-1.103,0-2,.897-2,2-1.654,0-3,1.346-3,3v4c0,1.654,1.346,3,3,3h6c1.654,0,3-1.346,3-3v-4c0-1.654-1.346-3-3-3Zm-4-1h2c.552,0,1,.448,1,1h-4c0-.552.448-1,1-1Zm-2,2h6c1.103,0,2,.897,2,2v1h-10v-1c0-1.103.897-2,2-2Zm6,8h-6c-1.103,0-2-.897-2-2v-2h4.5v1.5c0,.276.224.5.5.5s.5-.224.5-.5v-1.5h4.5v2c0,1.103-.897,2-2,2Zm-11,.5c0,.276-.224.5-.5.5h-5c-2.481,0-4.5-2.019-4.5-4.5V4.5C0,2.019,2.019,0,4.5,0h7c2.481,0,4.5,2.019,4.5,4.5v5c0,.276-.224.5-.5.5s-.5-.224-.5-.5v-5c0-1.93-1.57-3.5-3.5-3.5h-7c-1.93,0-3.5,1.57-3.5,3.5v15c0,1.93,1.57,3.5,3.5,3.5h5c.276,0,.5.224.5.5Zm-3-10c0,.276-.224.5-.5.5h-2c-.276,0-.5-.224-.5-.5s.224-.5.5-.5h2c.276,0,.5.224.5.5Zm5,0c0,.276-.224.5-.5.5h-2c-.276,0-.5-.224-.5-.5s.224-.5.5-.5h2c.276,0,.5.224.5.5Zm-5,4c0,.276-.224.5-.5.5h-2c-.276,0-.5-.224-.5-.5s.224-.5.5-.5h2c.276,0,.5.224.5.5Zm0-12c0,.276-.224.5-.5.5h-2c-.276,0-.5-.224-.5-.5s.224-.5.5-.5h2c.276,0,.5.224.5.5Zm5,0c0,.276-.224.5-.5.5h-2c-.276,0-.5-.224-.5-.5s.224-.5.5-.5h2c.276,0,.5.224.5.5Zm-5,4c0,.276-.224.5-.5.5h-2c-.276,0-.5-.224-.5-.5s.224-.5.5-.5h2c.276,0,.5.224.5.5Zm5,0c0,.276-.224.5-.5.5h-2c-.276,0-.5-.224-.5-.5s.224-.5.5-.5h2c.276,0,.5.224.5.5Z"/>
</svg>
