<?xml version="1.0" encoding="UTF-8"?>
<svg xmlns="http://www.w3.org/2000/svg" id="Layer_1" data-name="Layer 1" viewBox="0 0 24 24">
  <path d="m21,14c0-1.103-.897-2-2-2h-2c-1.103,0-2,.897-2,2-1.654,0-3,1.346-3,3v4c0,1.654,1.346,3,3,3h6c1.654,0,3-1.346,3-3v-4c0-1.654-1.346-3-3-3Zm-4-1h2c.551,0,1,.449,1,1h-4c0-.551.449-1,1-1Zm6,8c0,1.103-.897,2-2,2h-6c-1.103,0-2-.897-2-2v-2h4.5v1.5c0,.276.224.5.5.5s.5-.224.5-.5v-1.5h4.5v2Zm0-3h-10v-1c0-1.103.897-2,2-2h6c1.103,0,2,.897,2,2v1Zm-14-6c3.309,0,6-2.691,6-6S12.309,0,9,0,3,2.691,3,6s2.691,6,6,6Zm0-11c2.757,0,5,2.243,5,5s-2.243,5-5,5-5-2.243-5-5S6.243,1,9,1Zm1.995,13.66c-.039.273-.287.466-.566.424-.388-.056-.784-.084-1.179-.084-4.549,0-8.25,3.701-8.25,8.25v.25c0,.276-.224.5-.5.5s-.5-.224-.5-.5v-.25c0-5.101,4.149-9.25,9.25-9.25.442,0,.887.032,1.321.094.273.04.463.293.424.566Z"/>
</svg>
