<?xml version="1.0" encoding="UTF-8"?>
<svg xmlns="http://www.w3.org/2000/svg" id="Layer_1" data-name="Layer 1" viewBox="0 0 24 24">
  <path d="M21.162,10.217c-.552,.018-.986,.479-.968,1.031,.01,.331,.016,.669,.016,1.014,0,.528-.013,1.064-.039,1.6-2.981,.323-5.138,.942-5.233,.97-.328,.095-.585,.352-.681,.68-.028,.095-.648,2.245-.956,5.446-.516,.028-1.024,.043-1.517,.043-3.333,0-6.334-.646-7.523-.939-.284-1.168-.904-4.134-.904-7.798,0-3.638,.621-6.623,.905-7.798,1.189-.293,4.188-.939,7.522-.939l.443,.004c.534,.005,1.007-.432,1.016-.984,.009-.552-.432-1.007-.984-1.016l-.475-.004C7.209,1.525,3.323,2.637,3.16,2.685c-.328,.095-.585,.352-.681,.68-.046,.157-1.125,3.902-1.125,8.898,0,5.039,1.08,8.746,1.125,8.901,.097,.327,.353,.582,.68,.676,.163,.047,4.039,1.16,8.622,1.16,.815,0,1.665-.036,2.524-.107,.242-.02,.467-.127,.636-.301l6.894-7.12c.163-.168,.262-.389,.279-.623,.063-.863,.095-1.733,.095-2.586,0-.366-.005-.725-.017-1.077-.018-.553-.474-.989-1.031-.968Zm-2.74,5.905l-2.871,2.966c.173-1.105,.362-1.963,.486-2.477,.506-.125,1.34-.313,2.385-.489Z"/>
  <path d="M22.637,4.354c-.019-.139-.207-1.379-1.098-2.274-.892-.868-2.138-1.053-2.277-1.071-.233-.029-.467,.022-.664,.146-.088,.056-2.201,1.41-6.512,5.677-4.537,4.491-5.752,6.281-5.801,6.355-.09,.135-.146,.289-.163,.45l-.314,2.95c-.032,.3,.073,.599,.287,.812,.188,.189,.443,.293,.708,.293,.035,0,.069-.002,.104-.005l2.981-.312c.159-.017,.311-.071,.444-.158,.075-.049,1.882-1.251,6.419-5.742,4.311-4.268,5.68-6.36,5.736-6.447,.129-.2,.182-.439,.151-.675Zm-7.294,5.7c-3.562,3.525-5.379,4.954-5.927,5.36l-1.49,.156,.155-1.454c.417-.549,1.862-2.349,5.412-5.862,3.184-3.152,5.123-4.655,5.848-5.181,.25,.078,.573,.215,.792,.428,.215,.217,.355,.527,.436,.775-.539,.727-2.058,2.642-5.226,5.778Z"/>
</svg>
