<svg width="25" height="25" viewBox="0 0 25 25" fill="none" xmlns="http://www.w3.org/2000/svg">
<path d="M12.4 0.5C16.2215 0.5 19.3194 3.54547 19.3194 7.30227C19.3194 11.0591 16.2215 14.1045 12.4 14.1045C8.57851 14.1045 5.48061 11.0591 5.48061 7.30227C5.48486 3.54716 8.58023 0.504219 12.3996 0.5H12.4H12.4ZM12.4 12.5299C15.3368 12.5299 17.7177 10.1894 17.7177 7.30223C17.7177 4.41505 15.3369 2.07458 12.4 2.07458C9.46313 2.07458 7.08232 4.41505 7.08232 7.30225C7.08597 10.188 9.46459 12.5263 12.3996 12.5299H12.4ZM22.8239 24.5L22.4288 22.346C21.5314 17.6395 17.3843 14.1255 12.4023 14.1255H12.3998H12.4C7.42277 14.1256 3.27847 17.6311 2.38228 22.2677L2.37222 22.3302L1.9782 24.479L0.400024 24.1998L0.795118 22.0478C1.84198 16.6092 6.63793 12.5514 12.3979 12.5514C18.164 12.5514 22.964 16.6178 23.9924 21.9927L24.0038 22.0647L24.4 24.2208L22.8239 24.5Z" fill="#C0C6CD"/>
</svg>
